<?xml version="1.0" encoding="iso-8859-1"?>
<!-- Generator: Adobe Illustrator 19.0.0, SVG Export Plug-In . SVG Version: 6.00 Build 0)  -->
<svg version="1.1" id="Capa_1" xmlns="http://www.w3.org/2000/svg" xmlns:xlink="http://www.w3.org/1999/xlink" x="0px" y="0px"
	 viewBox="0 0 110 110" style="enable-background:new 0 0 110 110;" xml:space="preserve">
<g id="_x30_105-preserved-food">
	<g>
		<path style="fill-rule:evenodd;clip-rule:evenodd;" d="M105.891,33.662c-1.03-1.885-2.95-2.881-3.977-4.771
			c-1.537-1.377-2.708-3.121-4.505-4.24c-0.039-1.151,0.745-1.478,0.264-2.386c0.146-1.292-1.271-1.024-1.325-2.12
			c0.534-0.703,0.987-1.486,1.325-2.387c-0.75,0.046-1.104,0.488-1.855,0.532c-0.891-0.336-1.402,1.036-1.856,0.265
			c0.028-2.856-0.29-5.364-1.06-7.423c-0.197-1.077,0.854-0.912,0.53-2.12c-0.794-0.885-1.228-2.129-2.65-2.386
			c-0.939-0.825-2.617-0.917-3.711-1.59c-2.811-0.636-5.527-1.363-8.216-2.12C73.141,1.74,67.21,0.778,60.832,0.266
			C57.767,0.248,54.036,0.359,52.085,0c-1.709,0.589-4.483,0.112-6.626,0.266c-9.804,0.977-19.25,2.308-26.24,6.098
			c-1.17-0.11-2.049,0.07-2.651,0.528c-1.523,2.541-1.827,6.302-2.385,9.808v4.506c-2.021-0.088-3.014,1.393-2.386,3.18
			c-1.58,0.012-2.569,0.612-2.915,1.858c-0.014,1.248,1.12,1.354,1.591,2.12c-2.53,2.418-4.66,5.234-6.362,8.481
			c-0.241,1.584-0.526,4.043,0,5.565c0.946,0.917,2.844,1.361,4.505,0.796c0.554,0.418,1.394,0.551,2.386,0.53h2.386
			c0.358-0.083,0.505-0.377,1.06-0.266c0.456,0.104,0.68-0.394,0.795,0c-0.909,15.968-1.969,31.782-1.855,48.771
			c0.651,2.704,1.798,4.915,2.65,7.42c1.818,2.513,4.187,4.474,6.626,6.361c2.439,1.009,5.607,1.285,8.217,2.122
			c1.663-0.161,2.803,0.199,4.241,0.263c0.921-0.211,1.02,0.396,1.857,0.266c0.223,0.572,1.688-0.099,1.855,0.53
			c2.922,0.171,5.85,0.335,8.481,0.797h8.482c3.501-1.006,8.447-0.567,12.194-1.327c3.871-0.634,7.326-1.685,11.926-1.589
			c0.045-0.309,0.419-0.288,0.796-0.266c1.461-0.66,3.207-1.033,4.241-2.121c1.714-0.493,2.474-1.942,3.975-2.65
			c1.006-1.467,2.038-2.91,2.917-4.506c0.234-1.443,0.729-2.627,0.53-4.506c0.471-0.853,0.503-2.146,1.06-2.914
			c-0.468-1.273,0.06-1.941,0-3.447c-0.192-0.811,0.457-0.779,0.265-1.59c0.157-0.551-0.328-1.74,0.265-1.854
			c0.067-2.585,0.268-5.033,0.531-7.423c-0.043-13.521,0.128-25.617-0.796-38.169c2.153,0.587,3.195,2.284,5.832,2.386
			c0.941,0.649,1.436,1.744,2.915,1.857c-0.044-0.576,0.941-0.121,1.326-0.266c0.174-0.355,0.566-0.493,1.06-0.53
			C106.377,39.778,106.4,36.226,105.891,33.662z M18.422,13.252c0.472-0.763-0.052-2.525,0.796-2.913
			c1.23,0.054,0.101,1.46,0.264,2.12c0.157,1.128-0.191,1.754-0.264,2.65c-0.14,2.082,0.228,3.659,2.384,3.445
			c2.331-0.054,1.793-2.977,1.856-5.303c0.153-1.259,0.382-2.443,0.265-3.975c1.217-0.107,2.019-0.63,3.18-0.794
			c0.106,1.253-0.084,2.212-0.265,3.179v3.977c0.147,0.473,0.136,1.102,0.529,1.326c-0.113,0.731,0.988,0.248,1.06,0.793
			c1.685-0.258,1.737-2.148,1.591-4.24v-5.83c1.073-0.076,1.842-0.455,2.915-0.531c-0.076,2.223-0.676,3.92-0.795,6.096
			c-0.025,2.324-0.365,4.962,1.855,5.038c2.732-0.008,1.445-4.034,2.12-6.097c0.022-1.965,0.061-3.947-0.265-5.567
			c2.891-0.38,6.016-0.523,9.012-0.793c0.648,2.184-1.501,8.732,1.857,9.012c1.552-0.216,1.364-2.17,1.325-3.976V5.833h1.855
			c1.034,0.025,0.52,1.6,1.06,2.12c0.517,0.543,0.827,1.295,1.855,1.324c1.624-0.055,1.129-2.228,1.59-3.444
			c13.346-0.094,23.933,2.573,34.192,5.565c0.926,2.449,0.913,6.191,0,8.746c-6.201-0.642-11.499-0.549-17.759-1.059
			c-15.948-0.311-30.59,0.687-43.47,3.445h-7.95C17.949,20.442,18.569,16.465,18.422,13.252z M87.603,87.204
			c-5.903-0.459-12.101-0.621-18.555-0.53c-6.143,0.131-11.182,1.363-16.433,2.386c-2.216,0.14-3.403,0.25-5.566,0
			c-1.815,0.129-3.171,0.716-5.301,0.53c-1.313-0.897-2.88-1.538-3.711-2.916c0.479-10.742,0.64-21.802,0.531-33.133
			c-0.022-0.375-0.043-0.75,0.265-0.793c8.849,0.073,17.115,0.731,25.975,0.793c3.818,0.601,8.442,0.396,12.192,1.062
			c4.089,0.329,8.275,0.559,11.927,1.323C89.024,66.892,88.981,77.716,87.603,87.204z M88.927,50.628
			c-9.681-0.747-19.323-1.529-29.155-2.12c-5.372,0.068-10.586-0.018-15.373-0.531c-2.781,0.31-5.917,0.267-8.483,0.794
			c-1.55,0.748-1.674,2.92-1.59,5.302v6.892c0.213,0.919-0.394,1.019-0.265,1.855c0.273,9.706-1.527,19.636-0.265,28.626
			c0.409,0.917,1.403,1.246,2.12,1.856c1.051,0.411,1.62-1.004,2.121-0.266c1.73,0.48,3.352,1.067,5.302,1.326
			c2.776-0.199,4.291-0.071,7.155,0c9.333-1.372,19.58-3.199,30.482-2.12c2.226-0.105,4.152,0.089,6.096,0.265
			c0.516,5.285-3.141,6.4-5.83,8.482c-2.282-0.251-3.6,0.465-5.568,0.53c-1.264-0.205-1.705,0.414-2.914,0.263
			c-0.731,0.242-1.862,0.085-2.386,0.531c-3.654,0.409-6.976,1.151-11.132,1.061c-1.672,0.358-3.653,0.41-5.301,0.794
			c-8.266,0.139-15.224-1.03-22.265-2.12c0.39-1.773,1-3.82-0.795-4.506c-2.455-0.719-1.94,2.754-3.711,1.854
			c-1.014-0.862,0.533-2.258,0.796-3.444c0.628-1.081,0.799-2.996-0.53-3.445c-1.547-0.31-1.519,0.956-2.386,1.325
			c-0.26,0.358-0.708,0.53-1.06,0.796c0.048,0.578-0.217,0.843-0.795,0.794c-0.367-1.224-0.669-2.512-0.531-4.241
			c0.929-1.986,1.937-3.896,2.917-5.83c0.32-1.928,2.506-5.055,0.265-6.361c-2.385-0.442-1.848,2.038-3.447,2.386
			c-0.183-1.51,0.45-2.202,0.265-3.712c1.301-1.79,2.379-3.805,3.446-5.831c1.015-1.991,2.629-3.38,2.915-6.096
			c-0.376-0.685-0.62-1.499-1.589-1.591c-1.532-0.206-1.78,0.87-2.651,1.325c-0.237,0.468-0.639,0.774-0.794,1.325
			c-0.545-0.231-0.529,1.348-0.795,0.53c-0.25-0.579,0.161-2.38,0-3.71v-3.978c0.321-2.188,0.358-4.497,0.265-6.627
			c-0.209-4.747,0.093-9.198,0.265-14.047c1.474-0.646,3.418-0.821,5.566-0.796c0.475-0.031,0.559,0.326,1.061,0.267
			c2.049,0.601,3.807,1.494,5.565,2.385c2.147,0.505,4.243,1.06,6.361,1.59h5.036c6.455-1.585,10.434-5.645,16.169-7.95
			c2.124-0.012,3.806,0.485,5.831,1.058c-0.034-0.007,1.048,0.251,1.06,0.267c0.245,0.299,1.841,0.787,2.651,1.061
			c0.809,0.274,1.575,0.544,2.384,0.794c1.319,0.082,2.433-0.041,3.447-0.263c1.592,0.525,2.968,1.271,5.301,1.06
			c2.071-0.401,3.229-1.72,5.301-2.121c0.341,0.817-0.131,2.784-0.266,3.976C89.343,43.975,88.726,46.892,88.927,50.628z
			 M100.59,34.989c-1.811-0.045-2.595-1.118-3.975-1.593c-1.216-0.641-2.653-1.056-3.977-1.59h-4.506
			c-1.751,0.546-3.006,1.588-4.77,2.121c-2.014,0.069-3.379-0.51-5.037-0.796c-1.573-0.282-3.13-0.58-4.241-1.325
			c-3.06-0.739-5.963-1.635-9.012-2.385c-1.091-0.207-1.36,0.407-2.385,0.266c-5.938,1.838-10.064,5.487-15.639,7.688
			c-0.654-0.037-1.277-0.041-1.59,0.263c-3.026-0.241-5.843-0.694-8.218-1.589c-2.401-0.779-4.498-1.862-7.155-2.387
			c-3.598-0.15-6.476,0.419-9.013,1.327c-2.788,1.362-4.937,3.367-8.217,4.24c-1.409-0.004-2.993,0.166-3.712-0.53
			c-0.606-1.318,1.015-2.453,1.327-3.71c0.633-1.224,1.752-1.961,2.385-3.183c1.239-0.793,2.313-1.751,3.446-2.65
			c1.163-0.781,2.245-1.643,3.181-2.65c2.425,0.314,5.185,0.293,7.952,0.265c8.839-1.585,17.773-3.075,28.095-3.179
			c0.429,0.073,0.457-0.251,0.795-0.267c10.942-0.249,20.954,0.429,30.482,1.591c0.834-0.128,1.037,0.377,1.591,0.53
			c0.314,0.393,1.001,0.412,1.325,0.797c1.223,0.161,1.525-0.596,2.65-0.532c1.496,1.508,3.195,2.813,4.506,4.507
			c0.905,0.597,1.326,1.678,2.12,2.386c0.18,0.614,0.881,0.709,1.06,1.324C100.367,34.012,101.308,34.748,100.59,34.989z M84.157,66
			c-0.72-0.431-1.494-0.805-1.856-1.592c-0.811-0.338-1.325-0.972-2.386-1.059c-2.647,0.003-3.578,1.722-6.361,1.59
			c-1.555-0.477-1.537-2.528-3.444-2.65c-3.193,0.076-4.497,2.043-7.688,2.119c-0.79-1.15-0.956-2.931-1.589-4.24
			c-1.002-1.049-2.614-1.609-4.506-1.059c-1.244,0.869-2.373,1.682-3.18,2.65c-0.978,1.17-2.052,2.209-2.12,3.976
			c0.575,0.396,0.617,1.327,1.59,1.324c2.779,0.216,2.77-2.353,4.771-2.915c0.286,2.453,1.786,3.691,3.446,4.771h3.71
			c0.726-0.6,1.639-1.011,2.386-1.59c0.628-0.697,1.053-1.599,2.121-1.855c0.484,1.812,1.792,2.803,3.182,3.71h3.976
			c0.168-0.536,1.239-0.175,1.325-0.793c0.839,0.043,0.885-0.705,1.855-0.531c0.7,0.801,1.562,1.441,2.386,2.12
			c1.243,0.348,2.909,0.272,4.506,0.266c0.758-0.744,2.2-0.805,1.855-2.65C87.711,66.156,86.093,65.919,84.157,66z M81.771,76.867
			c-0.035-0.759-1.819,0.229-1.856-0.53H64.277c-1.413,0.796-4.528-0.11-4.771,1.854c-0.053,2.175,1.939,2.303,3.711,2.652h6.626
			c2.645,0.535,6.214,0.146,9.277,0.266c-0.045-0.577,0.94-0.122,1.325-0.266c0.224-0.396,0.853-0.385,1.326-0.531
			c0.4-0.838,1.434-1.042,1.325-2.386C82.756,77.474,82.548,76.885,81.771,76.867z"/>
	</g>
</g>
<g>
</g>
<g>
</g>
<g>
</g>
<g>
</g>
<g>
</g>
<g>
</g>
<g>
</g>
<g>
</g>
<g>
</g>
<g>
</g>
<g>
</g>
<g>
</g>
<g>
</g>
<g>
</g>
<g>
</g>
</svg>
