<svg width="600" height="874" viewBox="0 0 600 874" fill="none" xmlns="http://www.w3.org/2000/svg">
<path d="M19.6777 0H600V874H19.6777C-3.91265 529.18 600 426.758 19.6777 0Z" fill="url(#paint0_linear_0_1)"/>
<path d="M5.06122 800.405L36.9498 668.956L138.564 758.231L5.06122 800.405Z" stroke="#47BEE3" stroke-opacity="0.77" stroke-width="7"/>
<path d="M141.332 678.293L117.601 545.131L246.558 585.941L141.332 678.293Z" stroke="#5D5FEF" stroke-width="7"/>
<path d="M348.295 296.104C343.254 308.136 341.027 315.705 339.585 325.716C335.429 354.524 344.185 382.356 365.221 407.221C373.929 417.516 385.398 427.705 396.637 435.153L398.935 436.677L419.177 425.775L439.419 414.872L439.415 411.906C439.366 395.525 436.106 376.998 430.672 362.28C427.098 352.6 422.122 342.975 416.92 335.676C405.903 320.194 391.596 308.936 373.921 301.842C366.802 298.998 359.818 297.05 350.905 295.42C349.782 295.221 348.8 295.069 348.764 295.089C348.728 295.108 348.517 295.572 348.295 296.104ZM378.757 343.142C386.294 340.588 393.949 342.112 399.046 347.159C400.04 348.148 400.378 348.647 401.634 351.021C403.303 354.121 403.637 355.384 403.686 358.346C403.709 360.704 403.385 362.589 402.558 364.869C401.388 368.097 399.37 371.039 396.706 373.422C395.608 374.385 394.944 374.825 392.456 376.165C388.94 378.038 387.362 378.538 383.845 378.824C377.903 379.324 372.349 377.286 368.541 373.174C367.024 371.559 365.244 368.168 364.748 365.962C363.377 359.857 365.546 353.123 370.46 348.23C372.498 346.225 375.965 344.09 378.757 343.142ZM397.805 379.88C398.572 379.631 400.111 379.359 401.239 379.267C407.091 378.815 412.41 382.216 413.885 387.399C415.101 391.671 413.754 396.457 410.317 399.978C408.746 401.607 405.809 403.313 403.618 403.875C399.592 404.931 395.715 404.421 392.662 402.438C391.012 401.389 389.818 400.074 388.838 398.211C387.848 396.374 387.542 395.034 387.563 392.714C387.559 391.293 387.731 390.541 388.373 388.774C388.865 387.416 389.48 386.157 389.979 385.497C390.759 384.458 392.329 382.829 393.173 382.21C394.125 381.491 396.522 380.282 397.805 379.88ZM411.361 406.589C415.772 405.306 420.596 407.489 421.827 411.361C422.578 413.698 422.309 416.028 421.068 418.139C419.326 421.036 416.244 422.943 412.897 423.159C411.742 423.245 409.32 422.736 408.318 422.204C404.011 419.865 402.931 414.345 406.023 410.268C407.41 408.429 409.114 407.263 411.361 406.589Z" fill="#F6F3ED"/>
<path d="M439.201 381.844C439.418 383.232 440.05 386.293 440.624 388.643C442.3 395.614 442.807 400.37 442.759 409.198C442.746 411.575 442.794 413.507 442.847 413.52C443.228 413.583 448.75 413.762 453.05 413.858C471.412 414.254 482.707 413.447 488.712 411.305C493.288 409.685 494.118 407.239 491.181 404.101C487.608 400.254 478.643 395.27 464.965 389.466C458.482 386.733 440.945 379.895 439.135 379.406C438.87 379.343 438.888 379.848 439.201 381.844Z" fill="#F6F3ED"/>
<path d="M369.133 420.615C365.108 437.748 362.338 452.968 361.591 462.254C361.303 465.707 361.342 470.366 361.652 472.486C361.883 474.073 362.077 474.69 362.67 475.834C363.471 477.32 363.891 477.629 365.255 477.76C366.087 477.848 368.322 476.809 369.697 475.718C373.641 472.625 379.401 465.441 386.25 455.094C389.989 449.432 396.494 438.961 396.382 438.753C396.348 438.689 394.882 437.727 393.136 436.585C388.073 433.314 384.278 430.514 381.447 427.958C380.792 427.342 378.689 425.238 376.806 423.243C373.659 419.929 370.281 416.657 370.102 416.754C370.066 416.773 369.638 418.508 369.133 420.615Z" fill="#F6F3ED"/>
<path d="M404.375 438.632C401.633 446.788 401.088 455.677 402.846 463.614C403.804 467.922 404.959 471.01 407.171 475.116C409.227 478.935 410.822 481.209 413.705 484.376C415.274 486.088 419.485 489.92 419.7 489.805C419.772 489.766 419.669 489.018 419.48 488.109C417.238 477.732 417.055 470.06 418.964 467.218C419.709 466.116 420.891 465.479 422.221 465.464C427.748 465.393 438.91 475.356 454.85 494.577C456.702 496.815 458.346 498.795 458.538 498.98C458.886 499.37 458.962 499.638 456.876 492.764C450.466 471.647 448.131 457.795 449.975 451.917C450.537 450.13 451.036 449.428 452.146 448.83C455.278 447.143 461.191 450.534 469.718 458.906C472.641 461.805 472.396 461.607 472.44 461.13C472.478 460.429 471.942 456.863 471.472 454.705C469.608 446.186 465.356 438.376 459.378 432.464C453.722 426.894 446.245 422.615 438.695 420.642L436.089 419.963L420.554 428.331L405.037 436.689L404.375 438.632Z" fill="#F6F3ED"/>
<circle cx="187" cy="155" r="48.5" stroke="#6FC4E8" stroke-width="9"/>
<defs>
<linearGradient id="paint0_linear_0_1" x1="250.091" y1="0" x2="250.091" y2="874" gradientUnits="userSpaceOnUse">
<stop offset="0.190625" stop-color="#8E37C4"/>
<stop offset="0.659375" stop-color="#3052D3" stop-opacity="0.81"/>
<stop offset="1" stop-color="#47BEE3" stop-opacity="0.77"/>
</linearGradient>
</defs>
</svg>
